<?xml version="1.0" encoding="UTF-8" standalone="no"?>
<svg width="962px" height="342px" viewBox="0 0 962 342" version="1.1" xmlns="http://www.w3.org/2000/svg" xmlns:xlink="http://www.w3.org/1999/xlink" xmlns:sketch="http://www.bohemiancoding.com/sketch/ns">
    <!-- Generator: Sketch 3.3.2 (12043) - http://www.bohemiancoding.com/sketch -->
    <title>wm_no_bg</title>
    <desc>Created with Sketch.</desc>
    <defs></defs>
    <g id="Page-1" stroke="none" stroke-width="1" fill="none" fill-rule="evenodd" sketch:type="MSPage">
        <g id="wm_no_bg" sketch:type="MSLayerGroup">
            <g id="word" transform="translate(498.000000, 107.000000)" fill="#8C929D" sketch:type="MSShapeGroup">
                <path d="M237.0109,3.0669 L220.6379,3.0669 L220.6899,124.9329 L286.9259,124.9329 L286.9259,109.8629 L237.0629,109.8629 L237.0109,3.0669 Z" id="Fill-2"></path>
                <path d="M349.9956,103.5367 C345.9026,107.8157 339.0186,112.0957 329.7156,112.0957 C317.2496,112.0957 312.2266,105.9557 312.2266,97.9547 C312.2266,85.8617 320.5986,80.0937 338.4606,80.0937 C341.8096,80.0937 347.2046,80.4657 349.9956,81.0237 L349.9956,103.5367 Z M333.0646,29.6727 C319.8426,29.6727 307.7156,34.3597 298.2526,42.1617 L304.0396,52.1857 C310.7376,48.2787 318.9246,44.3707 330.6456,44.3707 C344.0416,44.3707 349.9956,51.2557 349.9956,62.7907 L349.9956,68.7447 C347.3906,68.1867 341.9956,67.8137 338.6466,67.8137 C309.9936,67.8137 295.4816,77.8607 295.4816,98.8857 C295.4816,117.6767 307.0166,127.1657 324.5056,127.1657 C336.2866,127.1657 347.5766,121.7697 351.4836,113.0257 L354.4606,124.9327 L365.9966,124.9327 L365.9966,62.6047 C365.9966,42.8827 357.4376,29.6727 333.0646,29.6727 L333.0646,29.6727 Z" id="Fill-3"></path>
                <path d="M418.8252,112.6533 C412.6852,112.6533 407.2892,111.9093 403.1962,110.0483 L403.1962,59.5343 L403.1962,53.6743 C408.7782,49.0223 415.6622,45.6733 424.4072,45.6733 C440.2212,45.6733 446.3612,56.8363 446.3612,74.8843 C446.3612,100.5593 436.5002,112.6533 418.8252,112.6533 M425.7062,29.6723 C411.0732,29.6723 403.1962,39.6273 403.1962,39.6273 L403.1962,23.9053 L403.1442,3.0673 L395.7622,3.0673 L387.1442,3.0673 L387.1962,121.9563 C395.1962,125.3053 406.1732,127.1653 418.0812,127.1653 C448.5942,127.1653 463.2922,107.6303 463.2922,73.9543 C463.2922,47.3483 449.7072,29.6723 425.7062,29.6723" id="Fill-5"></path>
                <path d="M59.0316,16.2769 C73.5436,16.2769 82.8466,21.1139 88.9866,25.9519 L96.0226,13.7639 C86.4326,5.3539 73.5336,0.8339 59.7756,0.8339 C24.9836,0.8339 0.6106,22.0449 0.6106,64.8369 C0.6106,109.6769 26.9046,127.1659 56.9846,127.1659 C72.0556,127.1659 84.8936,123.6309 93.2656,120.0959 L92.9226,72.1869 L92.9226,66.5349 L92.9226,57.1159 L48.2696,57.1159 L48.2696,72.1869 L76.7356,72.1869 L77.0786,108.5599 C73.3576,110.4209 66.8456,111.9089 58.1016,111.9089 C33.9146,111.9089 17.7276,96.6939 17.7276,64.6509 C17.7276,32.0919 34.4726,16.2769 59.0316,16.2769" id="Fill-7"></path>
                <path d="M174.1768,3.0669 L158.1758,3.0669 L158.2278,23.5329 L158.2278,31.9059 L158.2278,36.7859 L158.2278,45.3019 L158.2278,94.0479 L158.2278,94.2339 C158.2278,113.9559 166.7868,127.1659 191.1598,127.1659 C194.5268,127.1659 197.8218,126.8599 201.0208,126.2789 L201.0208,111.9099 C198.7048,112.2649 196.2328,112.4669 193.5788,112.4669 C180.1828,112.4669 174.2288,105.5829 174.2288,94.0479 L174.2288,45.3019 L201.0208,45.3019 L201.0208,31.9059 L174.2288,31.9059 L174.1768,3.0669 Z" id="Fill-9"></path>
                <path d="M117.575,124.933 L133.576,124.933 L133.576,31.905 L117.575,31.905 L117.575,124.933 Z" id="Fill-11"></path>
                <path d="M117.575,19.068 L133.576,19.068 L133.576,3.067 L117.575,3.067 L117.575,19.068 Z" id="Fill-13"></path>
            </g>
            <g id="logo" sketch:type="MSShapeGroup">
                <path d="M185.3984,341.1298 L185.3984,341.1298 L253.4114,131.8078 L117.3854,131.8078 L185.3984,341.1298 L185.3984,341.1298 Z" id="Fill-14" fill="#E24329"></path>
                <path id="Fill-15" fill="#E24329"></path>
                <path d="M185.3984,341.1294 L117.3854,131.8084 L22.0664,131.8084 L185.3984,341.1294 Z" id="Fill-16" fill="#FC6D26"></path>
                <path id="Fill-17" fill="#E24329"></path>
                <path d="M22.0664,131.8081 L22.0664,131.8081 L1.3974,195.4191 C-0.4876,201.2211 1.5774,207.5771 6.5134,211.1621 L185.3984,341.1291 L22.0664,131.8081 Z" id="Fill-18" fill="#FCA326"></path>
                <path id="Fill-19" fill="#E24329"></path>
                <path d="M22.0664,131.8083 L117.3854,131.8083 L76.4214,5.7353 C74.3134,-0.7517 65.1364,-0.7517 63.0294,5.7353 L22.0664,131.8083 Z" id="Fill-20" fill="#E24329"></path>
                <path d="M185.3984,341.1294 L253.4114,131.8084 L348.7304,131.8084 L185.3984,341.1294 Z" id="Fill-21" fill="#FC6D26"></path>
                <path d="M348.7303,131.8081 L348.7303,131.8081 L369.3993,195.4191 C371.2843,201.2211 369.2193,207.5771 364.2833,211.1621 L185.3983,341.1291 L348.7303,131.8081 Z" id="Fill-22" fill="#FCA326"></path>
                <path d="M348.7303,131.8083 L253.4113,131.8083 L294.3753,5.7353 C296.4833,-0.7517 305.6603,-0.7517 307.7673,5.7353 L348.7303,131.8083 Z" id="Fill-23" fill="#E24329"></path>
            </g>
        </g>
    </g>
</svg>